# xmcd
#
# Track frame offsets: 
#        183
#        13350
#        24800
#        36993
#        49485
#        60353
#        71670
#        85763
#        98003
#        112768
#        124695
#        139908
#        152535
#        166830
#        181110
#        195835
#
# Disc length: 2787 seconds
#
# Revision: 4
# Processed by: cddbd v1.5.2PL0 Copyright (c) Steve Scherf et al.
# Submitted via: ExactAudioCopy v0.90b4
#
DISCID=c10ae110
DTITLE=Nat King Cole - Sweet Lorraine
DYEAR=1992
DGENRE=Jazz
TTITLE0=Sweet Lorraine
TTITLE1=Honeysuckle Rose
TTITLE2=Gone With The Draft
TTITLE3=This Side Up
TTITLE4=Babs
TTITLE5=Scotchin' With The Soda
TTITLE6=Slow Down
TTITLE7=Early Morning Blues
TTITLE8=This Will Make You Laugh
TTITLE9=Stop! The Red Light's On
TTITLE10=Hit The Ramp
TTITLE11=I Like To Riff
TTITLE12=Call The Police
TTITLE13=Are You Fer It?
TTITLE14=That Ain't Right
TTITLE15=Hit That Jive, Jack
EXTD=Charly Records CDCD 1012 c.92 Made in the EEC.
EXTT0=
EXTT1=
EXTT2=
EXTT3=
EXTT4=
EXTT5=
EXTT6=
EXTT7=
EXTT8=
EXTT9=
EXTT10=
EXTT11=
EXTT12=
EXTT13=
EXTT14=
EXTT15=
PLAYORDER=
